<svg xmlns="http://www.w3.org/2000/svg" xmlns:xlink="http://www.w3.org/1999/xlink" xmlns:lucid="lucid" width="1836" height="1020"><g transform="translate(0 -20)" lucid:page-tab-id="0_0"><path d="M0 0h1870.87v1322.83H0z" fill="#fff"/><path d="M160 102c0-16.57 13.43-30 30-30h1460c16.57 0 30 13.43 30 30v888c0 16.57-13.43 30-30 30H190c-16.57 0-30-13.43-30-30z" stroke="#474747" fill-opacity="0"/><path d="M268 74.4v3.54c0 6.42-7.1 13.05-15.76 13.05h-46.48C197.1 91 190 84.35 190 77.93V74.4z" fill="#9d5125"/><path d="M220.03 40c8.03 0 14.82 4.4 18.17 11.67 4.6-3.14 10.92-1.98 14.04 2.65 1.17 1.64 1.7 3.32 1.8 5.3 7.87.68 13.95 8.25 13.95 14.27v1.3c0 6.45-7.1 13-15.76 13h-46.5c-8.64 0-15.74-6.55-15.74-13v-1.3c0-5.02 4.2-11.87 10.06-13.56v-.57c.08-10.95 8.97-19.82 19.97-19.77z" fill="#f58535"/><path d="M209.54 63.13l-5.2 18.2h3.04l1.17-4.43h5.38l1.1 4.43h3.05l-4.8-18.2zm-.47 11.4l2.22-8.98 2.1 8.97zM231.2 77.34h-.03l-2.47-14.2h-3.1l-2.4 14.13h-.06l-2.4-14.14h-2.95l3.53 18.2h3.38l2.35-13.7h.06l2.36 13.7h3.4l3.64-18.2h-2.9l-2.4 14.2zM245.9 71.4l-1.98-.72c-1.93-.7-2.74-1.53-2.74-3.1-.17-1.26.74-2.43 2-2.6.16-.02.3-.02.45-.02 1.26-.17 2.4.72 2.58 1.96.04.25.03.44 0 .68v.38h2.93v-.4c0-1.9-.5-4.8-5.18-4.8-3.44 0-5.7 1.84-5.7 5.16 0 2.6 1.1 3.97 3.82 5l2 .68c1.6.23 2.73 1.6 2.64 3.2.04 1.45-1.08 2.64-2.5 2.68h-.28c-2 0-3-1.12-3-3.33v-.47h-2.9v.44c0 2.54 1.02 5.53 5.52 5.53 3.7 0 6.07-1.6 6.07-5.48.04-2.5-1.1-3.9-3.7-4.8z" fill="#fff"/><use xlink:href="#a" transform="matrix(1,0,0,1,160,990) translate(705.5246913580247 11.11111111111111)"/><use xlink:href="#b" transform="matrix(1,0,0,1,160,990) translate(761.4506172839506 11.11111111111111)"/><path d="M400 150c0-16.57 13.43-30 30-30h1120c16.57 0 30 13.43 30 30v280c0 16.57-13.43 30-30 30H430c-16.57 0-30-13.43-30-30z" fill-opacity="0"/><path d="M415.04 124.1l3.17-1.7 4.72-1.56 4.93-.76L430 120h14.93m14.94 0h29.86m14.94 0h29.86m14.94 0h29.86m14.94 0h29.86m14.94 0h29.86m14.94 0h29.86m14.94 0h29.86m14.94 0h29.86m14.94 0h29.86m14.94 0h29.86m14.94 0h29.86m14.94 0h29.86m14.94 0h29.86m14.94 0h29.86m14.94 0h29.86m14.94 0h29.86m14.94 0h29.86m14.94 0h29.86m14.94 0h29.86m14.94 0h29.86m14.94 0h29.86m14.94 0h29.86m14.94 0h29.86m14.94 0h29.86m14.94 0H1550l5 .42 4.82 1.22 4.54 2 .6.42m10.95 10.98l1.7 3.17 1.56 4.72.76 4.93.08 2.15v15.56m0 15.55v31.12m0 15.56v31.1m0 15.56v31.12m0 15.55v31.12m0 15.56v31.1m0 15.56V430l-.42 5-1.22 4.82-2 4.54-.42.6m-10.98 10.95l-3.17 1.7-4.72 1.56-4.93.76-2.15.08h-14.93m-14.94 0h-29.86m-14.94 0h-29.86m-14.94 0h-29.86m-14.94 0h-29.86m-14.94 0h-29.86m-14.94 0h-29.86m-14.94 0h-29.86m-14.94 0h-29.86m-14.94 0h-29.86m-14.94 0h-29.86m-14.94 0h-29.86m-14.94 0h-29.86m-14.94 0h-29.86m-14.94 0h-29.86m-14.94 0h-29.86m-14.94 0h-29.86m-14.94 0h-29.86m-14.94 0h-29.86m-14.94 0h-29.86m-14.94 0h-29.86m-14.94 0h-29.86m-14.94 0h-29.86m-14.94 0h-29.86m-14.94 0h-29.86m-14.94 0H430l-5-.42-4.82-1.22-4.54-2-.6-.42m-10.95-10.98l-1.7-3.17-1.56-4.72-.76-4.93L400 430v-15.56m0-15.55v-31.12m0-15.56v-31.1m0-15.56v-31.12m0-15.55v-31.12m0-15.56v-31.1m0-15.56V150l.42-5 1.22-4.82 2-4.54.42-.6" stroke="#f7981f" stroke-width="3" fill="none"/><use xlink:href="#c" transform="matrix(1,0,0,1,400,430) translate(499.0432098765432 11.11111111111111)"/><use xlink:href="#d" transform="matrix(1,0,0,1,400,430) translate(609.4135802469135 11.11111111111111)"/><use xlink:href="#e" transform="matrix(1,0,0,1,400,430) translate(666.1419753086419 11.11111111111111)"/><path d="M400 630c0-16.57 13.43-30 30-30h1120c16.57 0 30 13.43 30 30v280c0 16.57-13.43 30-30 30H430c-16.57 0-30-13.43-30-30z" fill-opacity="0"/><path d="M415.04 604.1l3.17-1.7 4.72-1.56 4.93-.76L430 600h14.93m14.94 0h29.86m14.94 0h29.86m14.94 0h29.86m14.94 0h29.86m14.94 0h29.86m14.94 0h29.86m14.94 0h29.86m14.94 0h29.86m14.94 0h29.86m14.94 0h29.86m14.94 0h29.86m14.94 0h29.86m14.94 0h29.86m14.94 0h29.86m14.94 0h29.86m14.94 0h29.86m14.94 0h29.86m14.94 0h29.86m14.94 0h29.86m14.94 0h29.86m14.94 0h29.86m14.94 0h29.86m14.94 0h29.86m14.94 0h29.86m14.94 0H1550l5 .42 4.82 1.22 4.54 2 .6.42m10.95 10.98l1.7 3.17 1.56 4.72.76 4.93.08 2.15v15.56m0 15.55v31.12m0 15.56v31.1m0 15.56v31.12m0 15.55v31.12m0 15.56v31.1m0 15.56V910l-.42 5-1.22 4.82-2 4.54-.42.6m-10.98 10.95l-3.17 1.7-4.72 1.56-4.93.76-2.15.08h-14.93m-14.94 0h-29.86m-14.94 0h-29.86m-14.94 0h-29.86m-14.94 0h-29.86m-14.94 0h-29.86m-14.94 0h-29.86m-14.94 0h-29.86m-14.94 0h-29.86m-14.94 0h-29.86m-14.94 0h-29.86m-14.94 0h-29.86m-14.94 0h-29.86m-14.94 0h-29.86m-14.94 0h-29.86m-14.94 0h-29.86m-14.94 0h-29.86m-14.94 0h-29.86m-14.94 0h-29.86m-14.94 0h-29.86m-14.94 0h-29.86m-14.94 0h-29.86m-14.94 0h-29.86m-14.94 0h-29.86m-14.94 0h-29.86m-14.94 0H430l-5-.42-4.82-1.22-4.54-2-.6-.42m-10.95-10.98l-1.7-3.17-1.56-4.72-.76-4.93L400 910v-15.56m0-15.55v-31.12m0-15.56v-31.1m0-15.56v-31.12m0-15.55v-31.12m0-15.56v-31.1m0-15.56V630l.42-5 1.22-4.82 2-4.54.42-.6" stroke="#f7981f" stroke-width="3" fill="none"/><use xlink:href="#f" transform="matrix(1,0,0,1,400,910) translate(524.320987654321 11.11111111111111)"/><use xlink:href="#g" transform="matrix(1,0,0,1,400,910) translate(640.8641975308642 11.11111111111111)"/><path d="M380 122c0-16.57 13.43-30 30-30h1160c16.57 0 30 13.43 30 30v828c0 16.57-13.43 30-30 30H410c-16.57 0-30-13.43-30-30z" stroke="#474747" fill-opacity="0"/><path d="M488 94.4v3.54c0 6.42-7.1 13.05-15.76 13.05h-46.48c-8.66 0-15.75-6.64-15.75-13.06V94.4z" fill="#9d5125"/><path d="M440.03 60c8.03 0 14.82 4.4 18.17 11.67 4.6-3.14 10.92-1.98 14.04 2.65 1.17 1.64 1.7 3.32 1.8 5.3 7.87.68 13.95 8.25 13.95 14.27v1.3c0 6.45-7.1 13-15.76 13h-46.5c-8.64 0-15.74-6.55-15.74-13v-1.3c0-5.02 4.2-11.87 10.06-13.56v-.57c.08-10.95 8.97-19.82 19.97-19.77z" fill="#f58535"/><path d="M428.9 83.13h3.08l3.1 14.58 3.32-14.54h3.1l-4.6 18.2h-3.7zM443.37 83.13h5.77c3.5 0 5.04 2.2 5.04 5.3 0 3.1-1.9 5.4-5.33 5.4h-2.57v7.53h-2.9zm2.9 8.5h2.08c1.56 0 2.9-.83 2.9-3.14 0-1.98-.78-3.17-3.1-3.17h-1.87zM467.8 94.83v.38c0 3.32-1.3 6.52-5.6 6.52-4.6 0-6.04-2.97-6.04-9.47s1.43-9.46 6.05-9.46c5.2 0 5.54 3.8 5.54 5.7v.37h-2.9v-.3c0-1.7-.5-3.64-2.6-3.57-2.08.08-3.1 1.35-3.1 7.22 0 5.87.92 7.3 3.14 7.3 2.42 0 2.7-2.7 2.7-4.42v-.3z" fill="#fff"/><use xlink:href="#h" transform="matrix(1,0,0,1,380,950) translate(514.5061728395062 11.11111111111111)"/><use xlink:href="#i" transform="matrix(1,0,0,1,380,950) translate(579.7530864197531 11.11111111111111)"/><use xlink:href="#b" transform="matrix(1,0,0,1,380,950) translate(652.4691358024692 11.11111111111111)"/><path d="M420 162c0-16.57 13.43-30 30-30h320c16.57 0 30 13.43 30 30v228c0 16.57-13.43 30-30 30H450c-16.57 0-30-13.43-30-30z" stroke="#474747" fill-opacity="0"/><path d="M481.97 120.24v-5.9c0-7.25-5.88-13.13-13.12-13.13-7.24 0-13.12 5.9-13.12 13.14v5.9h6.64v-5.9c0-3.58 2.9-6.5 6.48-6.5 3.57 0 6.48 2.92 6.48 6.5v5.9h6.64z" fill="#876a22"/><path d="M481.98 120.26h5.42v20.83H450v-20.84h5.72v-7.1c0-7.28 5.87-13.16 13.13-13.16 7.26 0 13.13 5.88 13.13 13.15v7.1zm-6.66 0v-7.1c0-3.6-2.88-6.5-6.47-6.5-3.6 0-6.47 2.9-6.47 6.5v7.1h12.94z" fill="#daa835"/><path d="M450 141.1h37.4v.9H450z" fill="#876a22"/><use xlink:href="#j" transform="matrix(1,0,0,1,420,390) translate(114.13580246913583 11.11111111111111)"/><use xlink:href="#k" transform="matrix(1,0,0,1,420,390) translate(180.67901234567904 11.11111111111111)"/><use xlink:href="#l" transform="matrix(1,0,0,1,420,390) translate(253.5185185185185 11.11111111111111)"/><path d="M420 662c0-16.57 13.43-30 30-30h320c16.57 0 30 13.43 30 30v228c0 16.57-13.43 30-30 30H450c-16.57 0-30-13.43-30-30z" stroke="#474747" fill-opacity="0"/><path d="M481.97 620.24v-5.9c0-7.25-5.88-13.13-13.12-13.13-7.24 0-13.12 5.9-13.12 13.14v5.9h6.64v-5.9c0-3.58 2.9-6.5 6.48-6.5 3.57 0 6.48 2.92 6.48 6.5v5.9h6.64z" fill="#876a22"/><path d="M481.98 620.26h5.42v20.83H450v-20.84h5.72v-7.1c0-7.28 5.87-13.16 13.13-13.16 7.26 0 13.13 5.88 13.13 13.15v7.1zm-6.66 0v-7.1c0-3.6-2.88-6.5-6.47-6.5-3.6 0-6.47 2.9-6.47 6.5v7.1h12.94z" fill="#daa835"/><path d="M450 641.1h37.4v.9H450z" fill="#876a22"/><use xlink:href="#j" transform="matrix(1,0,0,1,420,890) translate(114.13580246913583 11.11111111111111)"/><use xlink:href="#k" transform="matrix(1,0,0,1,420,890) translate(180.67901234567904 11.11111111111111)"/><use xlink:href="#m" transform="matrix(1,0,0,1,420,890) translate(253.5185185185185 11.11111111111111)"/><path d="M1160 162c0-16.57 13.43-30 30-30h320c16.57 0 30 13.43 30 30v228c0 16.57-13.43 30-30 30h-320c-16.57 0-30-13.43-30-30z" stroke="#474747" fill-opacity="0"/><path d="M1221.97 120.24v-5.9c0-7.25-5.88-13.13-13.12-13.13-7.24 0-13.12 5.9-13.12 13.14v5.9h6.64v-5.9c0-3.58 2.9-6.5 6.48-6.5 3.57 0 6.48 2.92 6.48 6.5v5.9h6.64z" fill="#876a22"/><path d="M1221.98 120.26h5.42v20.83H1190v-20.84h5.72v-7.1c0-7.28 5.87-13.16 13.13-13.16 7.26 0 13.13 5.88 13.13 13.15v7.1zm-6.66 0v-7.1c0-3.6-2.88-6.5-6.47-6.5-3.6 0-6.47 2.9-6.47 6.5v7.1h12.94z" fill="#daa835"/><path d="M1190 141.1h37.4v.9H1190z" fill="#876a22"/><use xlink:href="#n" transform="matrix(1,0,0,1,1160,390) translate(109.81481481481482 11.11111111111111)"/><use xlink:href="#k" transform="matrix(1,0,0,1,1160,390) translate(185 11.11111111111111)"/><use xlink:href="#l" transform="matrix(1,0,0,1,1160,390) translate(257.8395061728395 11.11111111111111)"/><path d="M1160 662c0-16.57 13.43-30 30-30h320c16.57 0 30 13.43 30 30v228c0 16.57-13.43 30-30 30h-320c-16.57 0-30-13.43-30-30z" stroke="#474747" fill-opacity="0"/><path d="M1221.97 620.24v-5.9c0-7.25-5.88-13.13-13.12-13.13-7.24 0-13.12 5.9-13.12 13.14v5.9h6.64v-5.9c0-3.58 2.9-6.5 6.48-6.5 3.57 0 6.48 2.92 6.48 6.5v5.9h6.64z" fill="#876a22"/><path d="M1221.98 620.26h5.42v20.83H1190v-20.84h5.72v-7.1c0-7.28 5.87-13.16 13.13-13.16 7.26 0 13.13 5.88 13.13 13.15v7.1zm-6.66 0v-7.1c0-3.6-2.88-6.5-6.47-6.5-3.6 0-6.47 2.9-6.47 6.5v7.1h12.94z" fill="#daa835"/><path d="M1190 641.1h37.4v.9H1190z" fill="#876a22"/><use xlink:href="#n" transform="matrix(1,0,0,1,1160,890) translate(109.81481481481482 11.11111111111111)"/><use xlink:href="#k" transform="matrix(1,0,0,1,1160,890) translate(185 11.11111111111111)"/><use xlink:href="#m" transform="matrix(1,0,0,1,1160,890) translate(257.8395061728395 11.11111111111111)"/><path d="M1200 166c0-3.3 2.7-6 6-6h308c3.3 0 6 2.7 6 6v688c0 3.3-2.7 6-6 6h-308c-3.3 0-6-2.7-6-6z" fill="#fff" fill-opacity="0"/><path d="M1216.27 160h8.8m5.86 0h8.8m5.87 0h8.8m5.87 0h8.8m5.86 0h8.8m5.87 0h8.8m5.87 0h8.8m5.86 0h8.8m5.87 0h8.8m5.87 0h8.8m5.86 0h8.8m5.87 0h8.8m5.87 0h8.8m5.86 0h8.8m5.87 0h8.8m5.87 0h8.8m5.86 0h8.8m5.87 0h8.8m5.87 0h8.8m5.86 0h8.8m5.87 0h4.4l3.03.82 2.15 2.15.82 3.03v4.5m0 5.97v8.97m0 6v8.96m0 5.98v8.98m0 5.98v8.97m0 6v8.97m0 5.98v8.98m0 5.98v8.98m0 6v8.96m0 5.98v8.98m0 5.98v8.97m0 5.98V335m0 6v8.97m0 5.98v8.97m0 5.98v8.98m0 5.98v8.97m0 6v8.96m0 5.97v8.98m0 5.98v8.97m0 6v8.96m0 5.98v8.98m0 5.98v8.97m0 6v8.96m0 5.98v9m0 5.97v8.97m0 6v8.96m0 5.98v8.98m0 5.98v8.97m0 6v8.97m0 5.98v8.98m0 5.98v8.98m0 6v8.96m0 5.98v8.98m0 5.98v8.97m0 5.98V679m0 6v8.97m0 5.98v8.97m0 5.98v8.98m0 5.98v8.97m0 6v8.96m0 5.97v8.98m0 5.98v8.97m0 6v8.96m0 5.98v8.98m0 5.98v8.97m0 6v8.96m0 5.98v4.5l-.82 3.03-2.15 2.15-3.03.82h-4.4m-5.87 0h-8.8m-5.86 0h-8.8m-5.87 0h-8.8m-5.87 0h-8.8m-5.86 0h-8.8m-5.87 0h-8.8m-5.87 0h-8.8m-5.86 0h-8.8m-5.87 0h-8.8m-5.87 0h-8.8m-5.86 0h-8.8m-5.87 0h-8.8m-5.87 0h-8.8m-5.86 0h-8.8m-5.87 0h-8.8m-5.87 0h-8.8m-5.86 0h-8.8m-5.87 0h-8.8m-5.87 0h-8.8m-5.86 0h-8.8m-5.87 0h-4.4l-3.03-.82-2.15-2.15-.82-3.03v-4.5m0-5.97v-8.97m0-6v-8.96m0-5.98v-8.98m0-5.98v-8.97m0-6v-8.97m0-5.98v-8.98m0-5.98v-8.98m0-6v-8.96m0-5.98v-8.98m0-5.98v-8.97m0-5.98V685m0-6v-8.97m0-5.98v-8.97m0-5.98v-8.98m0-5.98v-8.97m0-6v-8.96m0-5.97v-8.98m0-5.98v-8.97m0-6v-8.96m0-5.98v-8.98m0-5.98v-8.97m0-6v-8.96m0-5.98v-9m0-5.97v-8.97m0-6v-8.96m0-5.98v-8.98m0-5.98v-8.97m0-6v-8.97m0-5.98v-8.98m0-5.98v-8.98m0-6v-8.96m0-5.98v-8.98m0-5.98v-8.97m0-5.98V341m0-6v-8.97m0-5.98v-8.97m0-5.98v-8.98m0-5.98v-8.97m0-6v-8.96m0-5.97v-8.98m0-5.98v-8.97m0-6v-8.96m0-5.98v-8.98m0-5.98v-8.97m0-6v-8.96m0-5.98V166l.82-3.03 2.15-2.15 3.03-.82h4.4" stroke="#d86613" stroke-width="3" fill="none"/><path d="M1332 160h56v56h-56v-56z" stroke="#fff" stroke-opacity="0" fill="#d86613"/><path d="M1351.68 183.73l-1.14 1.13 2.33 2.34H1340v1.6h12.87l-2.33 2.34 1.14 1.13 4.27-4.27-4.27-4.27zM1380 187.2h-12.87l2.33-2.34-1.14-1.13-4.27 4.27 4.27 4.27 1.14-1.13-2.33-2.34H1380v-1.6zM1359.2 170.63v12.87h1.6v-12.87l2.34 2.33 1.13-1.13-4.27-4.28-4.27 4.28 1.13 1.13 2.34-2.33zM1360.8 205.37V192.5h-1.6v12.87l-2.34-2.33-1.13 1.13 4.27 4.28 4.27-4.28-1.13-1.13-2.34 2.33z" stroke="#fff" stroke-opacity="0" fill="#fff"/><use xlink:href="#o" transform="matrix(1,0,0,1,1200,231) translate(109.55 14.4)"/><use xlink:href="#p" transform="matrix(1,0,0,1,1200,231) translate(151.55 14.4)"/><path d="M1220 690c0-16.57 13.43-30 30-30h220c16.57 0 30 13.43 30 30v120c0 16.57-13.43 30-30 30h-220c-16.57 0-30-13.43-30-30z" stroke="#474747" stroke-width="3" fill-opacity="0"/><path d="M1220 690c0-16.57 13.43-30 30-30h220c16.57 0 30 13.43 30 30v120c0 16.57-13.43 30-30 30h-220c-16.57 0-30-13.43-30-30z" fill="none"/><path d="M1235.04 664.1l3.17-1.7 4.72-1.56 4.93-.76 2.15-.08h14.67m14.66 0h29.34m14.66 0h29.34m14.66 0h29.34m14.66 0h29.34m14.66 0H1470l5 .42 4.82 1.22 4.54 2 .6.42m10.95 10.98l1.7 3.17 1.56 4.72.76 4.93.08 2.15v13.33m0 13.34v26.66m0 13.34v26.66m0 13.34V810l-.42 5-1.22 4.82-2 4.54-.42.6m-10.98 10.95l-3.17 1.7-4.72 1.56-4.93.76-2.15.08h-14.67m-14.66 0h-29.34m-14.66 0h-29.34m-14.66 0h-29.34m-14.66 0h-29.34m-14.66 0H1250l-5-.42-4.82-1.22-4.54-2-.6-.42m-10.95-10.98l-1.7-3.17-1.56-4.72-.76-4.93-.08-2.15v-13.33m0-13.34v-26.66m0-13.34v-26.66m0-13.34V690l.42-5 1.22-4.82 2-4.54.42-.6" stroke="red" stroke-width="3" fill="none"/><use xlink:href="#q" transform="matrix(1,0,0,1,1220,810) translate(70.33950617283952 11.11111111111111)"/><use xlink:href="#r" transform="matrix(1,0,0,1,1220,810) translate(152.9320987654321 11.11111111111111)"/><path d="M42.44 501.78H21.7c-.95 0-1.7-.76-1.7-1.7v-2.54c0-9.48 6.23-17.44 15.5-19.67.4-.1.8-.04 1.2.17 2.73 1.46 5.68 1.46 8.4 0 .4-.2.8-.26 1.22-.17 2.43.6 4.43 1.47 6.5 2.85l-1.9 2.83c-1.55-1-3-1.68-4.8-2.15-3.45 1.58-7 1.58-10.43 0-7.4 2.06-12.3 8.5-12.3 16.14v.84h19.04z" stroke="#fff" stroke-opacity="0" fill="#232f3e"/><path d="M40.88 482.46c-6.17 0-11.17-5-11.17-11.14 0-6.16 5-11.15 11.18-11.15 6.16-.07 11.2 4.88 11.26 11 .04 4.27-2.1 7.9-5.86 9.9-1.72.97-3.4 1.4-5.4 1.4zm0-18.9c-4.3 0-7.83 3.45-7.85 7.76 0 2.92 1.48 5.4 4.06 6.8 2.43 1.3 5.12 1.3 7.57 0 2.6-1.4 4.1-3.95 4.06-6.9-.05-4.27-3.57-7.68-7.85-7.64zM98.32 501.78H77.57v-3.4H96.6v-.83c0-7.67-4.9-14.1-12.25-16.17-3.45 1.6-7 1.6-10.46 0-1.82.5-3.3 1.2-4.84 2.28l-1.94-2.8c2.07-1.44 4.08-2.35 6.5-2.97.44-.1.86-.06 1.26.16 2.7 1.46 5.7 1.46 8.42 0 .4-.22.8-.27 1.2-.17 9.25 2.22 15.5 10.16 15.5 19.65v2.53c0 .94-.76 1.68-1.68 1.7z" stroke="#fff" stroke-opacity="0" fill="#232f3e"/><path d="M79.08 482.46c-6.2 0-11.23-5.05-11.23-11.25S72.9 460 79.13 460c6.2 0 11.23 5.05 11.23 11.25 0 4.23-2.14 7.82-5.85 9.84-1.75.94-3.44 1.36-5.42 1.36zm0-18.9c-4.3 0-7.8 3.45-7.83 7.76-.02 2.92 1.46 5.42 4.05 6.8 2.43 1.3 5.13 1.3 7.6 0 2.62-1.4 4.13-3.97 4.08-6.96-.1-4.26-3.62-7.68-7.9-7.6zM87.2 540H32.73c-.92 0-1.67-.75-1.67-1.7v-3.6c-.06-13.1 8.6-24.1 21.32-27.18.46-.13.86-.06 1.27.13 4.04 2.18 8.5 2.18 12.6 0 .34-.2.75-.26 1.2-.13 12.78 3.06 21.45 14.06 21.4 27.18v3.6c0 .95-.76 1.7-1.68 1.7zm-52.72-3.38h50.97v-1.92c0-11.27-7.28-20.74-18.2-23.66-4.8 2.3-9.83 2.3-14.62 0-10.93 2.92-18.15 12.4-18.15 23.66z" stroke="#fff" stroke-opacity="0" fill="#232f3e"/><path d="M60.02 512.64c-2.7 0-5-.58-7.4-1.86-7.4-4.07-10.13-13.34-6.1-20.77 4.1-7.4 13.38-10.12 20.83-6.08 7.42 4.07 10.15 13.34 6.1 20.77-1.47 2.68-3.4 4.6-6.1 6.08-2.36 1.28-4.66 1.86-7.33 1.86zm0-26.76c-4.44-.06-8.28 2.17-10.42 6.1-3.07 5.64-.98 12.74 4.7 15.83 3.67 1.97 7.7 1.97 11.4 0 3.95-2.13 6.22-5.95 6.16-10.42-.1-6.42-5.4-11.6-11.84-11.5z" stroke="#fff" stroke-opacity="0" fill="#232f3e"/><path d="M98.78 501.78H59.06c-.68 0-1.23-.54-1.23-1.23v-2.64c-.04-9.53 6.3-17.56 15.56-19.8.33-.1.63-.06.92.08 2.95 1.6 6.2 1.6 9.2 0 .25-.14.54-.2.88-.1 9.32 2.24 15.64 10.27 15.6 19.83v2.65c0 .7-.55 1.23-1.22 1.23zm-38.46-2.47h37.2v-1.4c0-8.2-5.32-15.1-13.3-17.25-3.5 1.7-7.16 1.7-10.66 0-7.97 2.14-13.24 9.05-13.24 17.26z" stroke="#fff" stroke-opacity="0" stroke-width=".73" fill="#fff" fill-opacity="0"/><path d="M60.94 501.78H21.22c-.67 0-1.22-.54-1.22-1.23v-2.64c-.04-9.53 6.28-17.56 15.56-19.8.34-.1.63-.06.93.08 2.94 1.6 6.2 1.6 9.18 0 .25-.14.55-.2.88-.1 9.32 2.24 15.65 10.27 15.6 19.83v2.65c0 .7-.54 1.23-1.22 1.23zM22.5 499.3h37.18v-1.4c0-8.2-5.3-15.1-13.28-17.25-3.5 1.7-7.17 1.7-10.67 0-7.97 2.14-13.24 9.05-13.24 17.26z" stroke="#fff" stroke-opacity="0" stroke-width=".73" fill="#fff" fill-opacity="0"/><use xlink:href="#s" transform="matrix(1,0,0,1,-10,549) translate(41.04938271604939 17.77777777777778)"/><path d="M235 502.36c0 31.8-25.76 57.63-57.5 57.63S120 534.16 120 502.35c0-31.8 25.76-57.63 57.5-57.63s57.5 25.82 57.5 57.63z" fill="#9d5025"/><path d="M120 497.62h115v4.73H120v-4.73z" fill="#9d5025"/><path d="M235 497.63c0 31.8-25.76 57.63-57.5 57.63S120 529.44 120 497.63c0-31.8 25.76-57.63 57.5-57.63s57.5 25.82 57.5 57.63z" fill="#f58536"/><path d="M134.15 503.36v-1.5c.43-7 4.33-12.8 10.65-15.86.6-12.86 11.52-22.8 24.43-22.12 8.05.38 14.8 4.5 18.88 11.47 6.6-2.77 14.13.28 16.9 6.82.43.95.7 1.72.86 2.67 8.67 1.72 14.9 10.03 14.9 17.02v1.4c0 8.53-8.83 16-18.88 16h-48.94c-9.96.07-18.8-7.42-18.8-15.9z" fill="#fff"/><path d="M189.27 481.48l-3.67 2.54-1.87-4.06c-2.85-6.34-8.7-10.23-15.66-10.27H168c-9.52 0-17.3 7.77-17.3 17.38v3.23l-2.7.8c-4.57 1.83-7.57 5.85-7.94 10.8v1.4c0 4.66 5.7 10.08 12.96 10.08h49c7.33 0 12.95-5.42 12.95-10.1v-1.4c0-4.7-5.25-10.87-11.3-11.35l-3.3-.26-.24-3.28c0-1.4-.44-2.54-1.2-3.68-2.17-3.2-6.5-3.98-9.66-1.8z" fill="#f58536"/><use xlink:href="#t" transform="matrix(1,0,0,1,120,560) translate(19.876543209876544 17.77777777777778)"/><use xlink:href="#u" transform="matrix(1,0,0,1,120,560) translate(16.172839506172842 44.44444444444444)"/><path d="M740 231.18c0 15.9-13.44 28.8-30 28.8-16.56 0-30-12.9-30-28.8s13.44-28.82 30-28.82c16.56 0 30 12.9 30 28.82z" fill="#9d5025"/><path d="M740 228.8c0 15.92-13.44 28.83-30 28.83-16.56 0-30-12.9-30-28.8 0-15.92 13.44-28.83 30-28.83 16.56 0 30 12.9 30 28.8z" fill="#f58536"/><path d="M718.12 215.43h3.16v26.75h-3.16v-26.75zM727.02 222.2l8.28 6.48-8.28 6.74v-13.2z" fill="#fff"/><path d="M697.73 227.3l1.82 1.4-2 1.63h30.86v-3.03h-30.67zM697.54 216.96h23.74v-3.04h-23.55l1.8 1.4-2 1.64zM699.54 242.08l-2 1.62h23.74v-3.03h-23.55l1.8 1.4zM690.95 223.52l6.62 5.18-6.62 5.4v-10.58zM690.95 210.15l6.62 5.18-6.62 5.4v-10.58zM690.95 236.9l6.62 5.18-6.62 5.4V236.9z" fill="#fff"/><use xlink:href="#v" transform="matrix(1,0,0,1,680,260) translate(7.191358024691361 17.77777777777778)"/><use xlink:href="#w" transform="matrix(1,0,0,1,680,260) translate(8.88888888888889 44.44444444444444)"/><use xlink:href="#u" transform="matrix(1,0,0,1,680,260) translate(-11.327160493827158 71.11111111111111)"/><path d="M725.7 731.18c0 15.9-14.7 28.8-32.84 28.8-18.14 0-32.86-12.9-32.86-28.8s14.72-28.82 32.86-28.82c18.13 0 32.85 12.9 32.85 28.82z" fill="#9d5025"/><path d="M725.7 728.82c0 15.9-14.7 28.8-32.84 28.8-18.14 0-32.86-12.9-32.86-28.8S674.72 700 692.86 700c18.13 0 32.85 12.9 32.85 28.82z" fill="#f58536"/><path d="M701.75 715.43h3.46v26.75h-3.45v-26.75zM711.5 722.2l9.06 6.48-9.07 6.74v-13.2z" fill="#fff"/><path d="M679.42 727.3l2 1.4-2.2 1.63H713v-3.03h-33.6zM679.2 716.96h26v-3.04h-25.78l1.98 1.4-2.2 1.64zM681.4 742.08l-2.2 1.62h26v-3.03h-25.78l1.98 1.4zM672 723.52l7.25 5.18-7.26 5.4v-10.58zM672 710.15l7.25 5.18-7.26 5.4v-10.58zM672 736.9l7.25 5.18-7.26 5.4V736.9z" fill="#fff"/><use xlink:href="#v" transform="matrix(1,0,0,1,660,760) translate(10.191358024691361 17.77777777777778)"/><use xlink:href="#w" transform="matrix(1,0,0,1,660,760) translate(11.88888888888889 44.44444444444444)"/><use xlink:href="#u" transform="matrix(1,0,0,1,660,760) translate(-8.327160493827158 71.11111111111111)"/><path d="M460 200h60v60h-60v-60z" stroke="#fff" stroke-opacity="0" stroke-width="2" fill="#d86613"/><path d="M508.4 232.4h-4v-1.6h4v-19.2h-19.22v4h-1.6v-4c0-.88.73-1.6 1.6-1.6h19.22c.88 0 1.6.72 1.6 1.6v19.2c0 .88-.72 1.6-1.6 1.6zM490.8 250h-19.22c-.87 0-1.6-.72-1.6-1.6v-19.2c0-.88.73-1.6 1.6-1.6h4v1.6h-4v19.2h19.22v-4h1.6v4c0 .88-.72 1.6-1.6 1.6z" stroke="#fff" stroke-opacity="0" stroke-width="2" fill="#fff"/><path d="M502.8 222.8v-1.6h-2.4c-.06-.85-.75-1.54-1.6-1.6v-2.4h-1.6v2.4h-2.4v-2.4h-1.6v2.4h-2.4v-2.4h-1.6v2.4h-2.4v-2.4h-1.6v2.4h-2.4v-2.4h-1.6v2.4c-.85.06-1.54.75-1.6 1.6h-2.4v1.6h2.4v2.4h-2.4v1.6h2.4v2.4h-2.4v1.6h2.4v2.4h-2.4v1.6h2.4v2.4h-2.4v1.6h2.4c.06.85.75 1.54 1.6 1.6v2.4h1.6v-2.4h2.4v2.4h1.6v-2.4h2.4v2.4h1.6v-2.4h2.4v2.4h1.6v-2.4h2.4v2.4h1.6v-2.4c.85-.06 1.54-.75 1.6-1.6h2.4v-1.6h-2.4v-2.4h2.4v-1.6h-2.4v-2.4h2.4v-1.6h-2.4v-2.4h2.4v-1.6h-2.4v-2.4zm-4 15.85c0 .08-.07.16-.15.16h-17.3c-.08 0-.16-.07-.16-.15v-17.3c0-.08.07-.16.15-.16h17.3c.08 0 .16.07.16.15z" stroke="#fff" stroke-opacity="0" stroke-width="2" fill="#fff"/><use xlink:href="#x" transform="matrix(1,0,0,1,430,269) translate(36.01851851851852 17.77777777777778)"/><path d="M460 700h60v60h-60v-60z" stroke="#fff" stroke-opacity="0" stroke-width="2" fill="#d86613"/><path d="M508.4 732.4h-4v-1.6h4v-19.2h-19.22v4h-1.6v-4c0-.88.73-1.6 1.6-1.6h19.22c.88 0 1.6.72 1.6 1.6v19.2c0 .88-.72 1.6-1.6 1.6zM490.8 750h-19.22c-.87 0-1.6-.72-1.6-1.6v-19.2c0-.88.73-1.6 1.6-1.6h4v1.6h-4v19.2h19.22v-4h1.6v4c0 .88-.72 1.6-1.6 1.6z" stroke="#fff" stroke-opacity="0" stroke-width="2" fill="#fff"/><path d="M502.8 722.8v-1.6h-2.4c-.06-.85-.75-1.54-1.6-1.6v-2.4h-1.6v2.4h-2.4v-2.4h-1.6v2.4h-2.4v-2.4h-1.6v2.4h-2.4v-2.4h-1.6v2.4h-2.4v-2.4h-1.6v2.4c-.85.06-1.54.75-1.6 1.6h-2.4v1.6h2.4v2.4h-2.4v1.6h2.4v2.4h-2.4v1.6h2.4v2.4h-2.4v1.6h2.4v2.4h-2.4v1.6h2.4c.06.85.75 1.54 1.6 1.6v2.4h1.6v-2.4h2.4v2.4h1.6v-2.4h2.4v2.4h1.6v-2.4h2.4v2.4h1.6v-2.4h2.4v2.4h1.6v-2.4c.85-.06 1.54-.75 1.6-1.6h2.4v-1.6h-2.4v-2.4h2.4v-1.6h-2.4v-2.4h2.4v-1.6h-2.4v-2.4h2.4v-1.6h-2.4v-2.4zm-4 15.85c0 .08-.07.16-.15.16h-17.3c-.08 0-.16-.07-.16-.15v-17.3c0-.08.07-.16.15-.16h17.3c.08 0 .16.07.16.15z" stroke="#fff" stroke-opacity="0" stroke-width="2" fill="#fff"/><use xlink:href="#x" transform="matrix(1,0,0,1,430,769) translate(36.01851851851852 17.77777777777778)"/><path d="M1323 683.03l-3 1.45v41.03l3 1.46 12.2-20.9-12.2-23.03z" fill="#9d5025"/><path d="M1330 725.38l-7 1.58v-43.93l7 1.54v40.8z" fill="#f58536"/><path d="M1326.32 681.42l3.7-1.77 17.56 27.17-17.56 23.52-3.7-1.77v-47.15z" fill="#9d5025"/><path d="M1338.76 727.96l-8.74 2.38v-50.7l8.74 2.4v45.92z" fill="#f58536"/><path d="M1334.14 677.66l4.64-2.25 25.88 34.4-25.88 24.78-4.64-2.25v-54.67z" fill="#9d5025"/><path d="M1350 730.6l-11.23 3.98V675.4l11.22 3.97v51.24z" fill="#f58536"/><path d="M1344 672.87l6-2.87 28 36.96-28 33.04-6-2.87v-64.26z" fill="#9d5025"/><path d="M1380 725.5l-30 14.5v-70l30 14.5v41z" fill="#f58536"/><use xlink:href="#y" transform="matrix(1,0,0,1,1320,740) translate(-10.70987654320988 17.77777777777778)"/><use xlink:href="#z" transform="matrix(1,0,0,1,1320,740) translate(8.425925925925927 44.44444444444444)"/><path d="M400 502.36c0 31.8-25.76 57.63-57.5 57.63S285 534.16 285 502.35c0-31.8 25.76-57.63 57.5-57.63s57.5 25.82 57.5 57.63z" fill="#9d5025"/><path d="M400 497.63c0 31.8-25.76 57.63-57.5 57.63S285 529.44 285 497.63c0-31.8 25.76-57.63 57.5-57.63s57.5 25.82 57.5 57.63z" fill="#f58536"/><path d="M359.27 451.08V472H325.7v-20.92h33.57zM385.22 511.64v17.04h-17v-17.04h17zM363.73 511.64v17.04h-17v-17.04h17zM337.56 511.64v17.04h-17v-17.04h17zM316.05 511.64v17.04h-17v-17.04h17z" fill="#fff"/><path d="M306.02 496.9h3.06v16.7h-3.06v-16.7z" fill="#fff"/><path d="M306.02 496.9h24.57v3.05H306v-3.06z" fill="#fff"/><path d="M327.53 496.9h3.06v16.7h-3.07v-16.7zM353.7 496.9h3.06v16.7h-3.06v-16.7z" fill="#fff"/><path d="M353.7 496.9h24.56v3.05H353.7v-3.06z" fill="#fff"/><path d="M375.2 496.9h3.06v16.7h-3.05v-16.7zM316.8 484.95h3.06v13.47h-3.06v-13.47zM340.96 468.92h3.06v16.28h-3.06v-16.28z" fill="#fff"/><path d="M316.8 483.67h50.77v3.06H316.8v-3.06z" fill="#fff"/><path d="M364.5 484.95h3.07v13.47h-3.06v-13.47z" fill="#fff"/><use xlink:href="#A" transform="matrix(1,0,0,1,285,560) translate(3.271604938271601 17.77777777777778)"/><use xlink:href="#B" transform="matrix(1,0,0,1,285,560) translate(32.808641975308646 44.44444444444444)"/><use xlink:href="#C" transform="matrix(1,0,0,1,285,560) translate(13.734567901234563 71.11111111111111)"/><path d="M342.5 561v163c0 3.3 2.7 6 6 6h93" stroke="#5e5e5e" stroke-width="2" fill="none"/><path d="M342.5 560h.53l.47-.04V561h-2v-1.06z" fill="#5e5e5e"/><path d="M456.76 730l-14.26 4.64v-9.28z" stroke="#5e5e5e" stroke-width="2" fill="#5e5e5e"/><path d="M342.5 439V236c0-3.3 2.7-6 6-6h93" stroke="#5e5e5e" stroke-width="2" fill="none"/><path d="M343.5 440.04l-1-.04h-.53l-.47.03v-1.06h2z" fill="#5e5e5e"/><path d="M456.76 230l-14.26 4.64v-9.28z" stroke="#5e5e5e" stroke-width="2" fill="#5e5e5e"/><path d="M924.8 492.94V476.1l-4.53 2.13v-2.12l4.77-2.68h2.6v19.64zM935.93 492.94l6.4-17.28h-8.68v-2.36h11.56v2.12l-6.3 17.52zM949.2 474.77c.86-.62 1.66-1.04 2.65-1.38.9-.27 1.68-.37 2.6-.3 1.4-.1 2.65.37 3.62 1.37.97 1.1 1.4 2.4 1.3 3.85 0 .96-.18 1.78-.54 2.68-.58 1.28-1.17 2.32-2 3.44-.97 1.36-2.62 3.5-4.95 6.3h8.22v2.35h-11.34v-2.13c2.03-2.5 3.58-4.5 4.67-6.05.93-1.24 1.62-2.38 2.3-3.8.48-.9.7-1.78.7-2.8 0-1.96-.82-3.03-2.42-3.03-1.8.15-3.3.74-4.75 1.8zM965.05 493.2c-.5.04-.95-.12-1.3-.47-.37-.37-.55-.8-.52-1.33-.04-.97.72-1.78 1.7-1.8.04-.02.07-.02.12 0 .5-.04.95.14 1.3.5.36.36.53.8.5 1.3.04.52-.14.96-.5 1.33-.36.35-.8.5-1.3.48zM975.66 492.94V476.1l-4.52 2.13v-2.12l4.76-2.68h2.6v19.64zM991.86 475.16c-1.33-.06-2.5.57-3.2 1.7-.85 1.72-1.24 3.36-1.2 5.3 1.25-.78 2.5-1.15 3.98-1.15 1.5-.05 2.8.54 3.72 1.7 1.03 1.23 1.48 2.6 1.4 4.2.08 1.76-.43 3.32-1.58 4.68-1.13 1.2-2.58 1.8-4.24 1.72-1.92.16-3.64-.7-4.67-2.33-1.22-2.33-1.7-4.6-1.52-7.23-.18-2.9.4-5.44 1.82-8 1.12-1.8 3-2.76 5.13-2.66.74.02 1.37.1 2.1.28.66.14 1.2.35 1.8.67v2.08c-.58-.25-1.1-.43-1.72-.57-.63-.2-1.17-.3-1.82-.37zm-1.2 8.12c-1.2 0-2.2.26-3.23.8v.2c-.1 1.85.14 3.43.8 5.15.43 1.04 1.4 1.66 2.54 1.64 1.9 0 2.85-1.33 2.85-4 .08-1.04-.17-1.95-.76-2.8-.54-.7-1.33-1.05-2.2-1zM1001.23 493.2c-.5.04-.94-.12-1.3-.47-.37-.37-.54-.82-.52-1.33 0-1 .83-1.8 1.83-1.8s1.82.8 1.82 1.8c.03.5-.15.96-.5 1.33-.37.35-.8.5-1.32.48zM1012 493.3c-1.98.1-3.73-.86-4.7-2.6-1.27-2.45-1.78-4.83-1.6-7.6-.18-2.74.33-5.1 1.6-7.58 1.02-1.65 2.74-2.55 4.7-2.42 1.96-.08 3.66.9 4.6 2.6 1.28 2.44 1.8 4.82 1.62 7.58.17 2.75-.34 5.1-1.6 7.58-1 1.66-2.7 2.55-4.6 2.45zm0-2.3c1.18 0 2.16-.74 2.5-1.88.67-2.04.9-3.88.78-6.03.12-2.17-.1-4-.8-6.06-.25-.87-.88-1.5-1.76-1.76-1.38-.4-2.83.4-3.23 1.76-.68 2.07-.92 3.9-.8 6.05-.12 2.14.12 3.98.8 6.02.32 1.16 1.3 1.9 2.5 1.9zM1022.74 493.2c-.5.04-.94-.12-1.3-.47-.37-.37-.54-.82-.52-1.33 0-1 .8-1.8 1.82-1.8 1 0 1.82.8 1.82 1.8.02.5-.15.96-.52 1.33-.36.35-.8.5-1.3.48zM1033.5 493.3c-1.96.1-3.68-.88-4.63-2.6-1.27-2.45-1.78-4.83-1.62-7.6-.16-2.74.35-5.1 1.62-7.57 1-1.64 2.7-2.53 4.63-2.45 1.97-.06 3.66.9 4.6 2.6 1.28 2.46 1.8 4.85 1.63 7.6.16 2.75-.35 5.12-1.62 7.58-.96 1.66-2.67 2.55-4.6 2.45zm0-2.3c1.18 0 2.17-.74 2.5-1.88.67-2.04.9-3.88.8-6.03.1-2.17-.13-4-.8-6.05-.27-.87-.9-1.5-1.77-1.77-1.4-.4-2.83.4-3.24 1.77-.66 2.04-.92 3.88-.8 6.04-.12 2.14.12 3.98.8 6.02.32 1.14 1.33 1.9 2.5 1.9zM924.8 539.35V522.6l-4.53 2.16v-2.33l4.77-2.7h2.6v19.62zM935.93 539.35l6.4-17.25h-8.68v-2.36h11.56v2.08l-6.3 17.53zM949.2 521.2c.87-.62 1.67-1.04 2.65-1.4.88-.3 1.67-.43 2.6-.4 1.4-.1 2.63.35 3.62 1.34.93 1.07 1.36 2.3 1.3 3.7 0 1-.18 1.8-.54 2.7-.55 1.3-1.16 2.32-2 3.45-.97 1.34-2.62 3.47-4.95 6.3h8.22v2.33h-11.34v-2.1c2.03-2.53 3.58-4.5 4.67-6.06.92-1.2 1.6-2.27 2.3-3.6.48-.9.7-1.76.7-2.78 0-1.97-.82-3.03-2.42-3.03-1.8.18-3.3.74-4.75 1.8zM965.05 539.56c-.98.04-1.8-.72-1.83-1.7v-.1c0-.52.16-.97.52-1.34.36-.35.8-.5 1.3-.48.5-.03.95.13 1.3.48.37.37.55.82.53 1.33 0 .5-.16.95-.52 1.3-.35.36-.8.54-1.3.5zM975.66 539.35V522.6l-4.52 2.16v-2.33l4.76-2.7h2.6v19.62zM991.86 521.6c-1.32-.07-2.5.54-3.18 1.68-.88 1.75-1.26 3.4-1.2 5.38 1.23-.8 2.48-1.15 3.96-1.17 1.45-.1 2.72.45 3.67 1.55 1.04 1.24 1.5 2.62 1.4 4.23.1 1.77-.43 3.3-1.57 4.65-1.13 1.24-2.58 1.83-4.25 1.75-1.9.14-3.6-.7-4.62-2.3-1.2-2.3-1.7-4.57-1.5-7.2-.2-2.92.4-5.46 1.8-8.02 1.1-1.85 2.97-2.87 5.1-2.78.75 0 1.38.06 2.1.24.66.16 1.2.36 1.8.67v2.06c-.56-.26-1.08-.42-1.7-.53-.63-.16-1.17-.22-1.8-.22zm-1.2 8.12c-1.2.02-2.17.27-3.23.77v.24c-.1 1.85.14 3.4.8 5.14.44 1.04 1.4 1.67 2.54 1.63 1.9 0 2.85-1.32 2.85-4 .07-1.06-.18-1.95-.75-2.82-.57-.67-1.34-1.02-2.22-.96zM1001.23 539.57c-.97.03-1.78-.73-1.82-1.7v-.12c0-.5.17-.96.53-1.33.76-.65 1.85-.65 2.6 0 .37.37.54.82.52 1.33.04.97-.72 1.78-1.7 1.82h-.12zM1011.85 539.35V522.6l-4.55 2.16v-2.33l4.76-2.7h2.6v19.62zM1022.74 539.57c-.97.03-1.8-.73-1.82-1.7v-.12c-.02-.5.15-.96.5-1.33.77-.65 1.87-.65 2.62 0 .36.37.54.82.52 1.33.03.97-.73 1.78-1.7 1.82h-.12zM1033.5 539.75c-1.96.06-3.68-.92-4.63-2.63-1.27-2.46-1.78-4.83-1.62-7.58-.15-2.77.35-5.13 1.62-7.6.96-1.7 2.68-2.65 4.64-2.56 1.96-.1 3.66.87 4.62 2.56 1.26 2.47 1.76 4.83 1.6 7.6.17 2.75-.33 5.14-1.6 7.6-.96 1.7-2.65 2.67-4.6 2.6zm0-2.3c1.18-.02 2.16-.76 2.5-1.88.66-2.03.9-3.9.8-6.03.1-2.16-.14-4-.8-6.05-.27-.9-.9-1.52-1.77-1.76-1.4-.4-2.83.37-3.24 1.75-.66 2.05-.9 3.88-.8 6.04-.1 2.14.14 3.98.8 6.03.33 1.14 1.33 1.88 2.5 1.88zM924.8 588.58v-16.74l-4.53 2.1v-2.3l4.77-2.7h2.6v19.64zM935.93 588.58l6.4-17.3h-8.68v-2.34h11.56v2.12l-6.3 17.52zM949.2 570.43c.86-.63 1.66-1.05 2.65-1.4.88-.33 1.67-.47 2.6-.45 1.4-.1 2.63.36 3.62 1.34.95 1.13 1.4 2.4 1.3 3.85 0 .98-.18 1.82-.54 2.72-.57 1.27-1.17 2.3-2 3.4-.97 1.4-2.62 3.47-4.95 6.32h8.22v2.36h-11.34v-2.12c2.03-2.55 3.58-4.53 4.67-6.05.92-1.2 1.6-2.3 2.3-3.63.47-.92.68-1.78.7-2.82 0-1.96-.82-3.02-2.42-3.02-1.8.18-3.3.74-4.75 1.82zM965.05 588.85c-.5.03-.95-.13-1.3-.48-.37-.37-.54-.82-.53-1.33-.03-.97.73-1.78 1.7-1.8.05-.02.08-.02.13 0 .5-.04.95.13 1.3.5.36.35.53.8.52 1.3.02.5-.16.96-.52 1.33-.36.35-.8.5-1.3.48zM975.66 588.58v-16.74l-4.52 2.1v-2.3l4.76-2.7h2.6v19.64zM991.86 570.8c-1.34-.05-2.5.56-3.18 1.7-.9 1.76-1.27 3.43-1.2 5.4 1.23-.8 2.48-1.16 3.96-1.18 1.45-.04 2.7.5 3.67 1.6 1.03 1.22 1.48 2.62 1.4 4.2.08 1.8-.43 3.33-1.57 4.7-1.14 1.2-2.6 1.8-4.25 1.7-1.9.16-3.6-.7-4.62-2.3-1.2-2.33-1.7-4.6-1.5-7.23-.2-2.94.4-5.47 1.8-8.04 1.1-1.85 2.96-2.85 5.1-2.8.74 0 1.38.1 2.1.25.66.18 1.2.4 1.82.7v2.07c-.6-.25-1.1-.4-1.72-.55-.63-.15-1.17-.2-1.8-.2zm-1.22 8.04c-1.17.02-2.15.27-3.2.8v.24c-.1 1.84.13 3.4.78 5.14.45 1.02 1.42 1.65 2.54 1.63 1.92 0 2.86-1.35 2.86-4 .08-1.03-.17-1.95-.76-2.8-.54-.7-1.33-1.07-2.22-1zM1001.23 588.85c-.5.03-.94-.13-1.3-.48-.36-.37-.54-.82-.52-1.33 0-1 .83-1.82 1.83-1.82s1.82.82 1.82 1.82c.02.5-.15.96-.5 1.33-.37.35-.8.5-1.32.48zM1006.9 570.43c.85-.63 1.65-1.05 2.65-1.4.87-.33 1.66-.47 2.6-.45 1.4-.1 2.63.36 3.6 1.34.97 1.13 1.4 2.4 1.32 3.85 0 .98-.18 1.82-.55 2.72-.56 1.27-1.16 2.3-2 3.4-.97 1.4-2.6 3.47-4.95 6.32h8.22v2.36h-11.35v-2.12c2.03-2.55 3.6-4.53 4.67-6.05.9-1.2 1.57-2.3 2.25-3.63.47-.92.68-1.78.7-2.82 0-1.96-.82-3.02-2.44-3.02-1.8.18-3.3.74-4.76 1.82zM1022.74 588.85c-.5.03-.94-.13-1.3-.48-.37-.37-.54-.82-.52-1.33 0-1 .8-1.82 1.82-1.82 1 0 1.82.82 1.82 1.82.02.5-.16.96-.52 1.33-.36.35-.8.5-1.3.48zM1033.5 588.95c-1.96.06-3.67-.9-4.63-2.6-1.25-2.43-1.75-4.8-1.62-7.5-.16-2.76.35-5.14 1.62-7.6.96-1.7 2.67-2.65 4.63-2.6 1.97-.05 3.66.9 4.6 2.6 1.28 2.46 1.8 4.84 1.63 7.6.16 2.75-.35 5.13-1.62 7.58-.96 1.68-2.65 2.6-4.6 2.52zm0-2.3c1.18-.02 2.17-.75 2.5-1.88.67-2.05.9-3.9.8-6.05.1-2.15-.13-4-.8-6.04-.27-.87-.9-1.5-1.77-1.75-1.4-.4-2.83.37-3.24 1.75-.68 2.05-.92 3.9-.8 6.04-.12 2.15.14 4 .8 6.05.32 1.13 1.33 1.88 2.5 1.88z" stroke="#fff" stroke-opacity="0" fill="#693cc5"/><path d="M1048.3 503.8H911.7c-1.56 0-2.98-1.38-2.98-3.05v-36.7c0-1.68 1.42-3.05 3-3.05h136.57c1.56 0 2.98 1.37 2.98 3.04v36.7c0 1.68-1.42 3.05-3 3.05zm-133.45-6.05h130.3v-30.72h-130.3zM1048.3 551.92H911.7c-1.56 0-2.98-1.37-2.98-3.04v-36.76c0-1.67 1.42-3.04 3-3.04h136.57c1.56 0 2.98 1.37 2.98 3.04v36.76c0 1.67-1.42 3.04-3 3.04zm-133.45-6.04h130.3v-30.76h-130.3zM1048.3 600H911.7c-1.56 0-2.98-1.37-2.98-3.04v-36.7c0-1.68 1.42-3.05 3-3.05h136.57c1.56 0 2.98 1.38 2.98 3.05v36.7c0 1.68-1.42 3.05-3 3.05zm-133.45-6.03h130.3v-30.72h-130.3z" stroke="#fff" stroke-opacity="0" fill="#693cc5"/><path d="M911.96 464.93h136.13v131.52H911.95V464.93z" stroke="#fff" stroke-opacity="0" stroke-width=".4" fill="#fff" fill-opacity="0"/><g><use xlink:href="#D" transform="matrix(1,0,0,1,878.7179487179487,609) translate(44.77160493827161 17.77777777777778)"/><use xlink:href="#E" transform="matrix(1,0,0,1,878.7179487179487,609) translate(110.14197530864197 17.77777777777778)"/></g><path d="M1758 455.42l57.98 8.62v5.1c0 7.53-25.98 13.63-58 13.63-32 0-57.98-6.1-57.98-13.64v-5.53z" fill="#8c3123"/><path d="M1758.02 492.13c24.2 0 44.93-3.54 53.58-8.5l2.88-4.78 1.15-4.4v5.45l-19 81c0 5.08-17.3 9.1-38.6 9.1-21.33 0-38.6-4.02-38.6-9.1l-19.02-81v-5.35l4.38 9.27c8.76 4.87 29.27 8.3 53.24 8.3z" fill="#8c3123"/><path d="M1758 450c32 0 58 6.12 58 13.62 0 7.5-26 13.57-58 13.57s-58-6.02-58-13.58c0-7.56 26-13.62 58-13.62z" fill="#e05243"/><path d="M1758 486.6c29.84 0 54.4-5.2 57.62-12.06l-19.02 81c0 5.05-17.3 9.1-38.6 9.1-21.33 0-38.6-4.05-38.6-9.1l-19.03-81c3.23 6.85 27.78 12.07 57.62 12.07z" fill="#e05243"/><g><use xlink:href="#F" transform="matrix(1,0,0,1,1700,570) translate(25.28395061728395 17.77777777777778)"/></g><defs><path fill="#333" d="M205 0l-28-72H64L36 0H1l101-248h38L239 0h-34zm-38-99l-47-123c-12 45-31 82-46 123h93" id="G"/><path fill="#333" d="M266 0h-40l-56-210L115 0H75L2-248h35L96-30l15-64 43-154h32l59 218 59-218h35" id="H"/><path fill="#333" d="M185-189c-5-48-123-54-124 2 14 75 158 14 163 119 3 78-121 87-175 55-17-10-28-26-33-46l33-7c5 56 141 63 141-1 0-78-155-14-162-118-5-82 145-84 179-34 5 7 8 16 11 25" id="I"/><g id="a"><use transform="matrix(0.06172839506172839,0,0,0.06172839506172839,0,0)" xlink:href="#G"/><use transform="matrix(0.06172839506172839,0,0,0.06172839506172839,14.012345679012345,0)" xlink:href="#H"/><use transform="matrix(0.06172839506172839,0,0,0.06172839506172839,34.938271604938265,0)" xlink:href="#I"/></g><path fill="#333" d="M96-169c-40 0-48 33-48 73s9 75 48 75c24 0 41-14 43-38l32 2c-6 37-31 61-74 61-59 0-76-41-82-99-10-93 101-131 147-64 4 7 5 14 7 22l-32 3c-4-21-16-35-41-35" id="J"/><path fill="#333" d="M24 0v-261h32V0H24" id="K"/><path fill="#333" d="M100-194c62-1 85 37 85 99 1 63-27 99-86 99S16-35 15-95c0-66 28-99 85-99zM99-20c44 1 53-31 53-75 0-43-8-75-51-75s-53 32-53 75 10 74 51 75" id="L"/><path fill="#333" d="M84 4C-5 8 30-112 23-190h32v120c0 31 7 50 39 49 72-2 45-101 50-169h31l1 190h-30c-1-10 1-25-2-33-11 22-28 36-60 37" id="M"/><path fill="#333" d="M85-194c31 0 48 13 60 33l-1-100h32l1 261h-30c-2-10 0-23-3-31C134-8 116 4 85 4 32 4 16-35 15-94c0-66 23-100 70-100zm9 24c-40 0-46 34-46 75 0 40 6 74 45 74 42 0 51-32 51-76 0-42-9-74-50-73" id="N"/><g id="b"><use transform="matrix(0.06172839506172839,0,0,0.06172839506172839,0,0)" xlink:href="#J"/><use transform="matrix(0.06172839506172839,0,0,0.06172839506172839,11.11111111111111,0)" xlink:href="#K"/><use transform="matrix(0.06172839506172839,0,0,0.06172839506172839,15.987654320987653,0)" xlink:href="#L"/><use transform="matrix(0.06172839506172839,0,0,0.06172839506172839,28.333333333333332,0)" xlink:href="#M"/><use transform="matrix(0.06172839506172839,0,0,0.06172839506172839,40.67901234567901,0)" xlink:href="#N"/></g><path fill="#333" d="M108 0H70L1-190h34L89-25l56-165h34" id="O"/><path fill="#333" d="M141-36C126-15 110 5 73 4 37 3 15-17 15-53c-1-64 63-63 125-63 3-35-9-54-41-54-24 1-41 7-42 31l-33-3c5-37 33-52 76-52 45 0 72 20 72 64v82c-1 20 7 32 28 27v20c-31 9-61-2-59-35zM48-53c0 20 12 33 32 33 41-3 63-29 60-74-43 2-92-5-92 41" id="P"/><path fill="#333" d="M24-231v-30h32v30H24zM24 0v-190h32V0H24" id="Q"/><path fill="#333" d="M115-194c53 0 69 39 70 98 0 66-23 100-70 100C84 3 66-7 56-30L54 0H23l1-261h32v101c10-23 28-34 59-34zm-8 174c40 0 45-34 45-75 0-40-5-75-45-74-42 0-51 32-51 76 0 43 10 73 51 73" id="R"/><path fill="#333" d="M59-47c-2 24 18 29 38 22v24C64 9 27 4 27-40v-127H5v-23h24l9-43h21v43h35v23H59v120" id="S"/><path fill="#333" d="M179-190L93 31C79 59 56 82 12 73V49c39 6 53-20 64-50L1-190h34L92-34l54-156h33" id="T"/><g id="c"><use transform="matrix(0.06172839506172839,0,0,0.06172839506172839,0,0)" xlink:href="#G"/><use transform="matrix(0.06172839506172839,0,0,0.06172839506172839,14.382716049382715,0)" xlink:href="#O"/><use transform="matrix(0.06172839506172839,0,0,0.06172839506172839,25.493827160493826,0)" xlink:href="#P"/><use transform="matrix(0.06172839506172839,0,0,0.06172839506172839,37.839506172839506,0)" xlink:href="#Q"/><use transform="matrix(0.06172839506172839,0,0,0.06172839506172839,42.71604938271605,0)" xlink:href="#K"/><use transform="matrix(0.06172839506172839,0,0,0.06172839506172839,47.592592592592595,0)" xlink:href="#P"/><use transform="matrix(0.06172839506172839,0,0,0.06172839506172839,59.93827160493827,0)" xlink:href="#R"/><use transform="matrix(0.06172839506172839,0,0,0.06172839506172839,72.28395061728395,0)" xlink:href="#Q"/><use transform="matrix(0.06172839506172839,0,0,0.06172839506172839,77.1604938271605,0)" xlink:href="#K"/><use transform="matrix(0.06172839506172839,0,0,0.06172839506172839,82.03703703703704,0)" xlink:href="#Q"/><use transform="matrix(0.06172839506172839,0,0,0.06172839506172839,86.91358024691358,0)" xlink:href="#S"/><use transform="matrix(0.06172839506172839,0,0,0.06172839506172839,93.08641975308642,0)" xlink:href="#T"/></g><path fill="#333" d="M209 0H11v-25l151-195H24v-28h176v25L50-27h159V0" id="U"/><path fill="#333" d="M117-194c89-4 53 116 60 194h-32v-121c0-31-8-49-39-48C34-167 62-67 57 0H25l-1-190h30c1 10-1 24 2 32 11-22 29-35 61-36" id="V"/><path fill="#333" d="M100-194c63 0 86 42 84 106H49c0 40 14 67 53 68 26 1 43-12 49-29l28 8c-11 28-37 45-77 45C44 4 14-33 15-96c1-61 26-98 85-98zm52 81c6-60-76-77-97-28-3 7-6 17-6 28h103" id="W"/><g id="d"><use transform="matrix(0.06172839506172839,0,0,0.06172839506172839,0,0)" xlink:href="#U"/><use transform="matrix(0.06172839506172839,0,0,0.06172839506172839,13.518518518518517,0)" xlink:href="#L"/><use transform="matrix(0.06172839506172839,0,0,0.06172839506172839,25.864197530864196,0)" xlink:href="#V"/><use transform="matrix(0.06172839506172839,0,0,0.06172839506172839,38.20987654320987,0)" xlink:href="#W"/></g><use transform="matrix(0.06172839506172839,0,0,0.06172839506172839,0,0)" xlink:href="#G" id="e"/><g id="f"><use transform="matrix(0.06172839506172839,0,0,0.06172839506172839,0,0)" xlink:href="#G"/><use transform="matrix(0.06172839506172839,0,0,0.06172839506172839,14.382716049382715,0)" xlink:href="#O"/><use transform="matrix(0.06172839506172839,0,0,0.06172839506172839,25.493827160493826,0)" xlink:href="#P"/><use transform="matrix(0.06172839506172839,0,0,0.06172839506172839,37.839506172839506,0)" xlink:href="#Q"/><use transform="matrix(0.06172839506172839,0,0,0.06172839506172839,42.71604938271605,0)" xlink:href="#K"/><use transform="matrix(0.06172839506172839,0,0,0.06172839506172839,47.592592592592595,0)" xlink:href="#P"/><use transform="matrix(0.06172839506172839,0,0,0.06172839506172839,59.93827160493827,0)" xlink:href="#R"/><use transform="matrix(0.06172839506172839,0,0,0.06172839506172839,72.28395061728395,0)" xlink:href="#Q"/><use transform="matrix(0.06172839506172839,0,0,0.06172839506172839,77.1604938271605,0)" xlink:href="#K"/><use transform="matrix(0.06172839506172839,0,0,0.06172839506172839,82.03703703703704,0)" xlink:href="#Q"/><use transform="matrix(0.06172839506172839,0,0,0.06172839506172839,86.91358024691358,0)" xlink:href="#S"/><use transform="matrix(0.06172839506172839,0,0,0.06172839506172839,93.08641975308642,0)" xlink:href="#T"/></g><path fill="#333" d="M160-131c35 5 61 23 61 61C221 17 115-2 30 0v-248c76 3 177-17 177 60 0 33-19 50-47 57zm-97-11c50-1 110 9 110-42 0-47-63-36-110-37v79zm0 115c55-2 124 14 124-45 0-56-70-42-124-44v89" id="X"/><use transform="matrix(0.06172839506172839,0,0,0.06172839506172839,0,0)" xlink:href="#X" id="g"/><path fill="#333" d="M114-163C36-179 61-72 57 0H25l-1-190h30c1 12-1 29 2 39 6-27 23-49 58-41v29" id="Y"/><g id="h"><use transform="matrix(0.06172839506172839,0,0,0.06172839506172839,0,0)" xlink:href="#O"/><use transform="matrix(0.06172839506172839,0,0,0.06172839506172839,11.11111111111111,0)" xlink:href="#Q"/><use transform="matrix(0.06172839506172839,0,0,0.06172839506172839,15.987654320987653,0)" xlink:href="#Y"/><use transform="matrix(0.06172839506172839,0,0,0.06172839506172839,23.333333333333332,0)" xlink:href="#S"/><use transform="matrix(0.06172839506172839,0,0,0.06172839506172839,29.50617283950617,0)" xlink:href="#M"/><use transform="matrix(0.06172839506172839,0,0,0.06172839506172839,41.85185185185185,0)" xlink:href="#P"/><use transform="matrix(0.06172839506172839,0,0,0.06172839506172839,54.197530864197525,0)" xlink:href="#K"/></g><path fill="#333" d="M115-194c55 1 70 41 70 98S169 2 115 4C84 4 66-9 55-30l1 105H24l-1-265h31l2 30c10-21 28-34 59-34zm-8 174c40 0 45-34 45-75s-6-73-45-74c-42 0-51 32-51 76 0 43 10 73 51 73" id="Z"/><g id="i"><use transform="matrix(0.06172839506172839,0,0,0.06172839506172839,0,0)" xlink:href="#Z"/><use transform="matrix(0.06172839506172839,0,0,0.06172839506172839,12.345679012345679,0)" xlink:href="#Y"/><use transform="matrix(0.06172839506172839,0,0,0.06172839506172839,19.691358024691358,0)" xlink:href="#Q"/><use transform="matrix(0.06172839506172839,0,0,0.06172839506172839,24.5679012345679,0)" xlink:href="#O"/><use transform="matrix(0.06172839506172839,0,0,0.06172839506172839,35.67901234567901,0)" xlink:href="#P"/><use transform="matrix(0.06172839506172839,0,0,0.06172839506172839,48.02469135802469,0)" xlink:href="#S"/><use transform="matrix(0.06172839506172839,0,0,0.06172839506172839,54.19753086419753,0)" xlink:href="#W"/></g><path fill="#333" d="M30-248c87 1 191-15 191 75 0 78-77 80-158 76V0H30v-248zm33 125c57 0 124 11 124-50 0-59-68-47-124-48v98" id="aa"/><g id="j"><use transform="matrix(0.06172839506172839,0,0,0.06172839506172839,0,0)" xlink:href="#aa"/><use transform="matrix(0.06172839506172839,0,0,0.06172839506172839,14.814814814814813,0)" xlink:href="#M"/><use transform="matrix(0.06172839506172839,0,0,0.06172839506172839,27.160493827160494,0)" xlink:href="#R"/><use transform="matrix(0.06172839506172839,0,0,0.06172839506172839,39.50617283950617,0)" xlink:href="#K"/><use transform="matrix(0.06172839506172839,0,0,0.06172839506172839,44.382716049382715,0)" xlink:href="#Q"/><use transform="matrix(0.06172839506172839,0,0,0.06172839506172839,49.25925925925926,0)" xlink:href="#J"/></g><path fill="#333" d="M135-143c-3-34-86-38-87 0 15 53 115 12 119 90S17 21 10-45l28-5c4 36 97 45 98 0-10-56-113-15-118-90-4-57 82-63 122-42 12 7 21 19 24 35" id="ab"/><g id="k"><use transform="matrix(0.06172839506172839,0,0,0.06172839506172839,0,0)" xlink:href="#ab"/><use transform="matrix(0.06172839506172839,0,0,0.06172839506172839,11.11111111111111,0)" xlink:href="#M"/><use transform="matrix(0.06172839506172839,0,0,0.06172839506172839,23.45679012345679,0)" xlink:href="#R"/><use transform="matrix(0.06172839506172839,0,0,0.06172839506172839,35.80246913580247,0)" xlink:href="#V"/><use transform="matrix(0.06172839506172839,0,0,0.06172839506172839,48.148148148148145,0)" xlink:href="#W"/><use transform="matrix(0.06172839506172839,0,0,0.06172839506172839,60.49382716049382,0)" xlink:href="#S"/></g><path fill="#333" d="M27 0v-27h64v-190l-56 39v-29l58-41h29v221h61V0H27" id="ac"/><use transform="matrix(0.06172839506172839,0,0,0.06172839506172839,0,0)" xlink:href="#ac" id="l"/><path fill="#333" d="M101-251c82-7 93 87 43 132L82-64C71-53 59-42 53-27h129V0H18c2-99 128-94 128-182 0-28-16-43-45-43s-46 15-49 41l-32-3c6-41 34-60 81-64" id="ad"/><use transform="matrix(0.06172839506172839,0,0,0.06172839506172839,0,0)" xlink:href="#ad" id="m"/><g id="n"><use transform="matrix(0.06172839506172839,0,0,0.06172839506172839,0,0)" xlink:href="#aa"/><use transform="matrix(0.06172839506172839,0,0,0.06172839506172839,14.814814814814813,0)" xlink:href="#Y"/><use transform="matrix(0.06172839506172839,0,0,0.06172839506172839,22.160493827160494,0)" xlink:href="#Q"/><use transform="matrix(0.06172839506172839,0,0,0.06172839506172839,27.037037037037038,0)" xlink:href="#O"/><use transform="matrix(0.06172839506172839,0,0,0.06172839506172839,38.14814814814815,0)" xlink:href="#P"/><use transform="matrix(0.06172839506172839,0,0,0.06172839506172839,50.49382716049383,0)" xlink:href="#S"/><use transform="matrix(0.06172839506172839,0,0,0.06172839506172839,56.66666666666667,0)" xlink:href="#W"/></g><path fill="#d86613" d="M205 0l-28-72H64L36 0H1l101-248h38L239 0h-34zm-38-99l-47-123c-12 45-31 82-46 123h93" id="ae"/><path fill="#d86613" d="M84 4C-5 8 30-112 23-190h32v120c0 31 7 50 39 49 72-2 45-101 50-169h31l1 190h-30c-1-10 1-25-2-33-11 22-28 36-60 37" id="af"/><path fill="#d86613" d="M59-47c-2 24 18 29 38 22v24C64 9 27 4 27-40v-127H5v-23h24l9-43h21v43h35v23H59v120" id="ag"/><path fill="#d86613" d="M100-194c62-1 85 37 85 99 1 63-27 99-86 99S16-35 15-95c0-66 28-99 85-99zM99-20c44 1 53-31 53-75 0-43-8-75-51-75s-53 32-53 75 10 74 51 75" id="ah"/><g id="o"><use transform="matrix(0.05,0,0,0.05,0,0)" xlink:href="#ae"/><use transform="matrix(0.05,0,0,0.05,12,0)" xlink:href="#af"/><use transform="matrix(0.05,0,0,0.05,22,0)" xlink:href="#ag"/><use transform="matrix(0.05,0,0,0.05,27,0)" xlink:href="#ah"/></g><path fill="#d86613" d="M185-189c-5-48-123-54-124 2 14 75 158 14 163 119 3 78-121 87-175 55-17-10-28-26-33-46l33-7c5 56 141 63 141-1 0-78-155-14-162-118-5-82 145-84 179-34 5 7 8 16 11 25" id="ai"/><path fill="#d86613" d="M96-169c-40 0-48 33-48 73s9 75 48 75c24 0 41-14 43-38l32 2c-6 37-31 61-74 61-59 0-76-41-82-99-10-93 101-131 147-64 4 7 5 14 7 22l-32 3c-4-21-16-35-41-35" id="aj"/><path fill="#d86613" d="M141-36C126-15 110 5 73 4 37 3 15-17 15-53c-1-64 63-63 125-63 3-35-9-54-41-54-24 1-41 7-42 31l-33-3c5-37 33-52 76-52 45 0 72 20 72 64v82c-1 20 7 32 28 27v20c-31 9-61-2-59-35zM48-53c0 20 12 33 32 33 41-3 63-29 60-74-43 2-92-5-92 41" id="ak"/><path fill="#d86613" d="M24 0v-261h32V0H24" id="al"/><path fill="#d86613" d="M24-231v-30h32v30H24zM24 0v-190h32V0H24" id="am"/><path fill="#d86613" d="M117-194c89-4 53 116 60 194h-32v-121c0-31-8-49-39-48C34-167 62-67 57 0H25l-1-190h30c1 10-1 24 2 32 11-22 29-35 61-36" id="an"/><path fill="#d86613" d="M177-190C167-65 218 103 67 71c-23-6-38-20-44-43l32-5c15 47 100 32 89-28v-30C133-14 115 1 83 1 29 1 15-40 15-95c0-56 16-97 71-98 29-1 48 16 59 35 1-10 0-23 2-32h30zM94-22c36 0 50-32 50-73 0-42-14-75-50-75-39 0-46 34-46 75s6 73 46 73" id="ao"/><g id="p"><use transform="matrix(0.05,0,0,0.05,0,0)" xlink:href="#ai"/><use transform="matrix(0.05,0,0,0.05,12,0)" xlink:href="#aj"/><use transform="matrix(0.05,0,0,0.05,21,0)" xlink:href="#ak"/><use transform="matrix(0.05,0,0,0.05,31,0)" xlink:href="#al"/><use transform="matrix(0.05,0,0,0.05,34.95,0)" xlink:href="#am"/><use transform="matrix(0.05,0,0,0.05,38.900000000000006,0)" xlink:href="#an"/><use transform="matrix(0.05,0,0,0.05,48.900000000000006,0)" xlink:href="#ao"/></g><g id="q"><use transform="matrix(0.06172839506172839,0,0,0.06172839506172839,0,0)" xlink:href="#ab"/><use transform="matrix(0.06172839506172839,0,0,0.06172839506172839,11.11111111111111,0)" xlink:href="#W"/><use transform="matrix(0.06172839506172839,0,0,0.06172839506172839,23.45679012345679,0)" xlink:href="#J"/><use transform="matrix(0.06172839506172839,0,0,0.06172839506172839,34.5679012345679,0)" xlink:href="#M"/><use transform="matrix(0.06172839506172839,0,0,0.06172839506172839,46.913580246913575,0)" xlink:href="#Y"/><use transform="matrix(0.06172839506172839,0,0,0.06172839506172839,54.25925925925925,0)" xlink:href="#Q"/><use transform="matrix(0.06172839506172839,0,0,0.06172839506172839,59.1358024691358,0)" xlink:href="#S"/><use transform="matrix(0.06172839506172839,0,0,0.06172839506172839,65.30864197530863,0)" xlink:href="#T"/></g><path fill="#333" d="M177-190C167-65 218 103 67 71c-23-6-38-20-44-43l32-5c15 47 100 32 89-28v-30C133-14 115 1 83 1 29 1 15-40 15-95c0-56 16-97 71-98 29-1 48 16 59 35 1-10 0-23 2-32h30zM94-22c36 0 50-32 50-73 0-42-14-75-50-75-39 0-46 34-46 75s6 73 46 73" id="ap"/><g id="r"><use transform="matrix(0.06172839506172839,0,0,0.06172839506172839,0,0)" xlink:href="#ap"/><use transform="matrix(0.06172839506172839,0,0,0.06172839506172839,12.345679012345679,0)" xlink:href="#Y"/><use transform="matrix(0.06172839506172839,0,0,0.06172839506172839,19.691358024691358,0)" xlink:href="#L"/><use transform="matrix(0.06172839506172839,0,0,0.06172839506172839,32.03703703703704,0)" xlink:href="#M"/><use transform="matrix(0.06172839506172839,0,0,0.06172839506172839,44.382716049382715,0)" xlink:href="#Z"/></g><path fill="#333" d="M232-93c-1 65-40 97-104 97C67 4 28-28 28-90v-158h33c8 89-33 224 67 224 102 0 64-133 71-224h33v155" id="aq"/><g id="s"><use transform="matrix(0.06172839506172839,0,0,0.06172839506172839,0,0)" xlink:href="#aq"/><use transform="matrix(0.06172839506172839,0,0,0.06172839506172839,15.987654320987653,0)" xlink:href="#ab"/><use transform="matrix(0.06172839506172839,0,0,0.06172839506172839,27.098765432098766,0)" xlink:href="#W"/><use transform="matrix(0.06172839506172839,0,0,0.06172839506172839,39.44444444444444,0)" xlink:href="#Y"/><use transform="matrix(0.06172839506172839,0,0,0.06172839506172839,46.79012345679012,0)" xlink:href="#ab"/></g><path fill="#333" d="M33 0v-248h34V0H33" id="ar"/><g id="t"><use transform="matrix(0.06172839506172839,0,0,0.06172839506172839,0,0)" xlink:href="#ar"/><use transform="matrix(0.06172839506172839,0,0,0.06172839506172839,6.172839506172839,0)" xlink:href="#V"/><use transform="matrix(0.06172839506172839,0,0,0.06172839506172839,18.51851851851852,0)" xlink:href="#S"/><use transform="matrix(0.06172839506172839,0,0,0.06172839506172839,24.691358024691358,0)" xlink:href="#W"/><use transform="matrix(0.06172839506172839,0,0,0.06172839506172839,37.03703703703704,0)" xlink:href="#Y"/><use transform="matrix(0.06172839506172839,0,0,0.06172839506172839,44.382716049382715,0)" xlink:href="#V"/><use transform="matrix(0.06172839506172839,0,0,0.06172839506172839,56.72839506172839,0)" xlink:href="#W"/><use transform="matrix(0.06172839506172839,0,0,0.06172839506172839,69.07407407407408,0)" xlink:href="#S"/></g><path fill="#333" d="M206 0h-36l-40-164L89 0H53L-1-190h32L70-26l43-164h34l41 164 42-164h31" id="as"/><g id="u"><use transform="matrix(0.06172839506172839,0,0,0.06172839506172839,0,0)" xlink:href="#ap"/><use transform="matrix(0.06172839506172839,0,0,0.06172839506172839,12.345679012345679,0)" xlink:href="#P"/><use transform="matrix(0.06172839506172839,0,0,0.06172839506172839,24.691358024691358,0)" xlink:href="#S"/><use transform="matrix(0.06172839506172839,0,0,0.06172839506172839,30.864197530864196,0)" xlink:href="#W"/><use transform="matrix(0.06172839506172839,0,0,0.06172839506172839,43.20987654320987,0)" xlink:href="#as"/><use transform="matrix(0.06172839506172839,0,0,0.06172839506172839,59.197530864197525,0)" xlink:href="#P"/><use transform="matrix(0.06172839506172839,0,0,0.06172839506172839,71.5432098765432,0)" xlink:href="#T"/></g><path fill="#333" d="M137 0h-34L2-248h35l83 218 83-218h36" id="at"/><path fill="#333" d="M212-179c-10-28-35-45-73-45-59 0-87 40-87 99 0 60 29 101 89 101 43 0 62-24 78-52l27 14C228-24 195 4 139 4 59 4 22-46 18-125c-6-104 99-153 187-111 19 9 31 26 39 46" id="au"/><g id="v"><use transform="matrix(0.06172839506172839,0,0,0.06172839506172839,0,0)" xlink:href="#at"/><use transform="matrix(0.06172839506172839,0,0,0.06172839506172839,14.814814814814813,0)" xlink:href="#aa"/><use transform="matrix(0.06172839506172839,0,0,0.06172839506172839,29.629629629629626,0)" xlink:href="#au"/></g><path fill="#333" d="M190 0L58-211 59 0H30v-248h39L202-35l-2-213h31V0h-41" id="av"/><path fill="#333" d="M127-220V0H93v-220H8v-28h204v28h-85" id="aw"/><g id="w"><use transform="matrix(0.06172839506172839,0,0,0.06172839506172839,0,0)" xlink:href="#av"/><use transform="matrix(0.06172839506172839,0,0,0.06172839506172839,15.987654320987653,0)" xlink:href="#G"/><use transform="matrix(0.06172839506172839,0,0,0.06172839506172839,29.1358024691358,0)" xlink:href="#aw"/></g><g id="x"><use transform="matrix(0.06172839506172839,0,0,0.06172839506172839,0,0)" xlink:href="#as"/><use transform="matrix(0.06172839506172839,0,0,0.06172839506172839,15.987654320987653,0)" xlink:href="#as"/><use transform="matrix(0.06172839506172839,0,0,0.06172839506172839,31.975308641975307,0)" xlink:href="#as"/></g><path fill="#333" d="M210-169c-67 3-38 105-44 169h-31v-121c0-29-5-50-35-48C34-165 62-65 56 0H25l-1-190h30c1 10-1 24 2 32 10-44 99-50 107 0 11-21 27-35 58-36 85-2 47 119 55 194h-31v-121c0-29-5-49-35-48" id="ax"/><path fill="#333" d="M9 0v-24l116-142H16v-24h144v24L44-24h123V0H9" id="ay"/><g id="y"><use transform="matrix(0.06172839506172839,0,0,0.06172839506172839,0,0)" xlink:href="#G"/><use transform="matrix(0.06172839506172839,0,0,0.06172839506172839,14.814814814814813,0)" xlink:href="#ax"/><use transform="matrix(0.06172839506172839,0,0,0.06172839506172839,33.2716049382716,0)" xlink:href="#P"/><use transform="matrix(0.06172839506172839,0,0,0.06172839506172839,45.61728395061728,0)" xlink:href="#ay"/><use transform="matrix(0.06172839506172839,0,0,0.06172839506172839,56.72839506172839,0)" xlink:href="#L"/><use transform="matrix(0.06172839506172839,0,0,0.06172839506172839,69.07407407407408,0)" xlink:href="#V"/></g><path fill="#333" d="M30 0v-248h187v28H63v79h144v27H63v87h162V0H30" id="az"/><g id="z"><use transform="matrix(0.06172839506172839,0,0,0.06172839506172839,0,0)" xlink:href="#az"/><use transform="matrix(0.06172839506172839,0,0,0.06172839506172839,14.814814814814813,0)" xlink:href="#au"/><use transform="matrix(0.06172839506172839,0,0,0.06172839506172839,30.80246913580247,0)" xlink:href="#ad"/></g><g id="A"><use transform="matrix(0.06172839506172839,0,0,0.06172839506172839,0,0)" xlink:href="#G"/><use transform="matrix(0.06172839506172839,0,0,0.06172839506172839,14.814814814814813,0)" xlink:href="#Z"/><use transform="matrix(0.06172839506172839,0,0,0.06172839506172839,27.160493827160494,0)" xlink:href="#Z"/><use transform="matrix(0.06172839506172839,0,0,0.06172839506172839,39.50617283950617,0)" xlink:href="#K"/><use transform="matrix(0.06172839506172839,0,0,0.06172839506172839,44.382716049382715,0)" xlink:href="#Q"/><use transform="matrix(0.06172839506172839,0,0,0.06172839506172839,49.25925925925926,0)" xlink:href="#J"/><use transform="matrix(0.06172839506172839,0,0,0.06172839506172839,60.37037037037037,0)" xlink:href="#P"/><use transform="matrix(0.06172839506172839,0,0,0.06172839506172839,72.71604938271605,0)" xlink:href="#S"/><use transform="matrix(0.06172839506172839,0,0,0.06172839506172839,78.88888888888889,0)" xlink:href="#Q"/><use transform="matrix(0.06172839506172839,0,0,0.06172839506172839,83.76543209876543,0)" xlink:href="#L"/><use transform="matrix(0.06172839506172839,0,0,0.06172839506172839,96.11111111111111,0)" xlink:href="#V"/></g><path fill="#333" d="M30 0v-248h33v221h125V0H30" id="aA"/><g id="B"><use transform="matrix(0.06172839506172839,0,0,0.06172839506172839,0,0)" xlink:href="#aA"/><use transform="matrix(0.06172839506172839,0,0,0.06172839506172839,12.345679012345679,0)" xlink:href="#L"/><use transform="matrix(0.06172839506172839,0,0,0.06172839506172839,24.691358024691358,0)" xlink:href="#P"/><use transform="matrix(0.06172839506172839,0,0,0.06172839506172839,37.03703703703704,0)" xlink:href="#N"/></g><g id="C"><use transform="matrix(0.06172839506172839,0,0,0.06172839506172839,0,0)" xlink:href="#X"/><use transform="matrix(0.06172839506172839,0,0,0.06172839506172839,14.814814814814813,0)" xlink:href="#P"/><use transform="matrix(0.06172839506172839,0,0,0.06172839506172839,27.160493827160494,0)" xlink:href="#K"/><use transform="matrix(0.06172839506172839,0,0,0.06172839506172839,32.03703703703704,0)" xlink:href="#P"/><use transform="matrix(0.06172839506172839,0,0,0.06172839506172839,44.382716049382715,0)" xlink:href="#V"/><use transform="matrix(0.06172839506172839,0,0,0.06172839506172839,56.72839506172839,0)" xlink:href="#J"/><use transform="matrix(0.06172839506172839,0,0,0.06172839506172839,67.8395061728395,0)" xlink:href="#W"/><use transform="matrix(0.06172839506172839,0,0,0.06172839506172839,80.18518518518519,0)" xlink:href="#Y"/></g><path fill="#333" d="M233-177c-1 41-23 64-60 70L243 0h-38l-65-103H63V0H30v-248c88 3 205-21 203 71zM63-129c60-2 137 13 137-47 0-61-80-42-137-45v92" id="aB"/><g id="D"><use transform="matrix(0.06172839506172839,0,0,0.06172839506172839,0,0)" xlink:href="#aB"/><use transform="matrix(0.06172839506172839,0,0,0.06172839506172839,15.987654320987653,0)" xlink:href="#L"/><use transform="matrix(0.06172839506172839,0,0,0.06172839506172839,28.333333333333332,0)" xlink:href="#M"/><use transform="matrix(0.06172839506172839,0,0,0.06172839506172839,40.67901234567901,0)" xlink:href="#S"/><use transform="matrix(0.06172839506172839,0,0,0.06172839506172839,46.851851851851855,0)" xlink:href="#W"/></g><g id="E"><use transform="matrix(0.06172839506172839,0,0,0.06172839506172839,0,0)" xlink:href="#S"/><use transform="matrix(0.06172839506172839,0,0,0.06172839506172839,6.172839506172839,0)" xlink:href="#P"/><use transform="matrix(0.06172839506172839,0,0,0.06172839506172839,18.51851851851852,0)" xlink:href="#R"/><use transform="matrix(0.06172839506172839,0,0,0.06172839506172839,30.864197530864196,0)" xlink:href="#K"/><use transform="matrix(0.06172839506172839,0,0,0.06172839506172839,35.74074074074074,0)" xlink:href="#W"/></g><path fill="#333" d="M143 0L79-87 56-68V0H24v-261h32v163l83-92h37l-77 82L181 0h-38" id="aC"/><g id="F"><use transform="matrix(0.06172839506172839,0,0,0.06172839506172839,0,0)" xlink:href="#R"/><use transform="matrix(0.06172839506172839,0,0,0.06172839506172839,12.345679012345679,0)" xlink:href="#M"/><use transform="matrix(0.06172839506172839,0,0,0.06172839506172839,24.691358024691358,0)" xlink:href="#J"/><use transform="matrix(0.06172839506172839,0,0,0.06172839506172839,35.80246913580247,0)" xlink:href="#aC"/><use transform="matrix(0.06172839506172839,0,0,0.06172839506172839,46.91358024691358,0)" xlink:href="#W"/><use transform="matrix(0.06172839506172839,0,0,0.06172839506172839,59.25925925925926,0)" xlink:href="#S"/></g></defs></g></svg>